# xmcd CD database file
# Copyright (C) 1993-1998 Ti Kan
#
# Track frame offsets:
#  187
#  32357
#  45930
#  58547
#  71667
#  81465
#  92705
#  98485
#  109077
#  119260
#  126770
#  138537
#  148897
#  164622
#  172830
#  184297
#  196115
#  215427
#  231345
#  245297
#  259870
#  270585
#  284735
#  298307
#
# Disc length: 4154 seconds
#
# Revision: 1
# Processed by: cddbd v1.4b41PL1 Copyright (c) Steve Scherf et al.
# Submitted via: CDWizzard Release:4.32
#
DISCID=6b103818
DTITLE=Opera Stars from 1900 to 1960 - Met Stars in the New World, Disc 2
DTITLE=
DYEAR=1900
DGENRE=
TTITLE0=Bachianas Brasileiras No. 5 - Aria
TTITLE1=Modinha
TTITLE2=Cancion Arbol del Olvido
TTITLE3=Ah, Love, But What a Day
TTITLE4=The Priate Song
TTITLE5=Just You
TTITLE6=At The River 
TTITLE7=Light, My Light
TTITLE8=The Bitterness of Love
TTITLE9=Toys
TTITLE10=By a Lonely Forest Pahtway
TTITLE11=The Monk and His Cat
TTITLE12=A Prayer to St. catherine
TTITLE13=Early in the Morning
TTITLE14=When I have Sung My Songs
TTITLE15=Whispering Hope
TTITLE16=Listen to the Mocking Bird
TTITLE17=Silver Threads
TTITLE18=Cielito Lindo
TTITLE19=La cumparsita
TTITLE20=Bill Bailey, Won't You Pleas Come Home
TTITLE21=The Whiffenpoof Song
TTITLE22=The Maple Leaf Forever
TTITLE23=God Bless America
EXTD=
EXTT0=
EXTT1=
EXTT2=
EXTT3=
EXTT4=
EXTT5=
EXTT6=
EXTT7=
EXTT8=
EXTT9=
EXTT10=
EXTT11=
EXTT12=
EXTT13=
EXTT14=
EXTT15=
EXTT16=
EXTT17=
EXTT18=
EXTT19=
EXTT20=
EXTT21=
EXTT22=
EXTT23=
PLAYORDER=
